<svg xmlns="http://www.w3.org/2000/svg" xmlns:xlink="http://www.w3.org/1999/xlink" viewBox="0 0 1993.69 1230.27"><defs><pattern id="_6_dpi_20_" data-name="6 dpi 20%" width="48" height="48" patternTransform="translate(156.01 7.24) scale(0.98)" patternUnits="userSpaceOnUse" viewBox="0 0 48 48"><rect width="48" height="48" style="fill:none"/><path d="M24,50.4A2.4,2.4,0,1,0,21.6,48,2.4,2.4,0,0,0,24,50.4Z" style="fill:#232020"/><path d="M48,50.4A2.4,2.4,0,1,0,45.6,48,2.4,2.4,0,0,0,48,50.4Z" style="fill:#232020"/><path d="M24,26.4A2.4,2.4,0,1,0,21.6,24,2.4,2.4,0,0,0,24,26.4Z" style="fill:#232020"/><path d="M48,26.4A2.4,2.4,0,1,0,45.6,24,2.4,2.4,0,0,0,48,26.4Z" style="fill:#232020"/><path d="M36,38.4A2.4,2.4,0,1,0,33.6,36,2.4,2.4,0,0,0,36,38.4Z" style="fill:#232020"/><path d="M12,38.4A2.4,2.4,0,1,0,9.6,36,2.4,2.4,0,0,0,12,38.4Z" style="fill:#232020"/><path d="M36,14.4A2.4,2.4,0,1,0,33.6,12,2.4,2.4,0,0,0,36,14.4Z" style="fill:#232020"/><path d="M12,14.4A2.4,2.4,0,1,0,9.6,12,2.4,2.4,0,0,0,12,14.4Z" style="fill:#232020"/><path d="M0,50.4A2.4,2.4,0,0,0,2.4,48,2.41,2.41,0,0,0,0,45.6,2.4,2.4,0,0,0-2.4,48,2.39,2.39,0,0,0,0,50.4Z" style="fill:#232020"/><path d="M0,26.4A2.4,2.4,0,0,0,2.4,24,2.41,2.41,0,0,0,0,21.6,2.4,2.4,0,0,0-2.4,24,2.39,2.39,0,0,0,0,26.4Z" style="fill:#232020"/><path d="M24,2.4A2.4,2.4,0,0,0,26.4,0,2.41,2.41,0,0,0,24-2.4,2.4,2.4,0,0,0,21.6,0,2.39,2.39,0,0,0,24,2.4Z" style="fill:#232020"/><path d="M48,2.4A2.4,2.4,0,0,0,50.4,0,2.41,2.41,0,0,0,48-2.4,2.4,2.4,0,0,0,45.6,0,2.39,2.39,0,0,0,48,2.4Z" style="fill:#232020"/><path d="M0,2.4A2.4,2.4,0,0,0,2.4,0,2.41,2.41,0,0,0,0-2.4,2.4,2.4,0,0,0-2.4,0,2.39,2.39,0,0,0,0,2.4Z" style="fill:#232020"/></pattern><pattern id="_6_dpi_20_3" data-name="6 dpi 20%" width="48" height="48" patternTransform="matrix(0.46, -0.87, 0.87, 0.46, 34.92, -129.86)" patternUnits="userSpaceOnUse" viewBox="0 0 48 48"><rect width="48" height="48" style="fill:none"/><path d="M24,50.4A2.4,2.4,0,1,0,21.6,48,2.4,2.4,0,0,0,24,50.4Z" style="fill:#232020"/><path d="M48,50.4A2.4,2.4,0,1,0,45.6,48,2.4,2.4,0,0,0,48,50.4Z" style="fill:#232020"/><path d="M24,26.4A2.4,2.4,0,1,0,21.6,24,2.4,2.4,0,0,0,24,26.4Z" style="fill:#232020"/><path d="M48,26.4A2.4,2.4,0,1,0,45.6,24,2.4,2.4,0,0,0,48,26.4Z" style="fill:#232020"/><path d="M36,38.4A2.4,2.4,0,1,0,33.6,36,2.4,2.4,0,0,0,36,38.4Z" style="fill:#232020"/><path d="M12,38.4A2.4,2.4,0,1,0,9.6,36,2.4,2.4,0,0,0,12,38.4Z" style="fill:#232020"/><path d="M36,14.4A2.4,2.4,0,1,0,33.6,12,2.4,2.4,0,0,0,36,14.4Z" style="fill:#232020"/><path d="M12,14.4A2.4,2.4,0,1,0,9.6,12,2.4,2.4,0,0,0,12,14.4Z" style="fill:#232020"/><path d="M0,50.4A2.4,2.4,0,0,0,2.4,48,2.41,2.41,0,0,0,0,45.6,2.4,2.4,0,0,0-2.4,48,2.39,2.39,0,0,0,0,50.4Z" style="fill:#232020"/><path d="M0,26.4A2.4,2.4,0,0,0,2.4,24,2.41,2.41,0,0,0,0,21.6,2.4,2.4,0,0,0-2.4,24,2.39,2.39,0,0,0,0,26.4Z" style="fill:#232020"/><path d="M24,2.4A2.4,2.4,0,0,0,26.4,0,2.41,2.41,0,0,0,24-2.4,2.4,2.4,0,0,0,21.6,0,2.39,2.39,0,0,0,24,2.4Z" style="fill:#232020"/><path d="M48,2.4A2.4,2.4,0,0,0,50.4,0,2.41,2.41,0,0,0,48-2.4,2.4,2.4,0,0,0,45.6,0,2.39,2.39,0,0,0,48,2.4Z" style="fill:#232020"/><path d="M0,2.4A2.4,2.4,0,0,0,2.4,0,2.41,2.41,0,0,0,0-2.4,2.4,2.4,0,0,0-2.4,0,2.39,2.39,0,0,0,0,2.4Z" style="fill:#232020"/></pattern></defs><title>Asset 1</title><g style="isolation:isolate"><g id="Layer_2" data-name="Layer 2"><g id="Layer_1-2" data-name="Layer 1"><path d="M1272.7,931.82a4.52,4.52,0,1,1,4.51-4.52A4.51,4.51,0,0,1,1272.7,931.82Z" style="fill:#020202"/><path d="M1272.7,970.6a4.51,4.51,0,1,1,4.51-4.51A4.51,4.51,0,0,1,1272.7,970.6Z" style="fill:#020202"/><path d="M1272.7,1009.39a4.52,4.52,0,1,1,4.51-4.52A4.51,4.51,0,0,1,1272.7,1009.39Z" style="fill:#020202"/><path d="M1272.7,1048.17a4.51,4.51,0,1,1,4.51-4.51A4.51,4.51,0,0,1,1272.7,1048.17Z" style="fill:#020202"/><path d="M1272.7,1085.9a4.52,4.52,0,1,1,4.51-4.51A4.51,4.51,0,0,1,1272.7,1085.9Z" style="fill:#020202"/><path d="M1272.7,1124.68a4.51,4.51,0,1,1,4.51-4.51A4.51,4.51,0,0,1,1272.7,1124.68Z" style="fill:#020202"/><path d="M1272.7,1163.47a4.52,4.52,0,1,1,4.51-4.51A4.51,4.51,0,0,1,1272.7,1163.47Z" style="fill:#020202"/><path d="M1272.7,1202.25a4.51,4.51,0,1,1,4.51-4.51A4.51,4.51,0,0,1,1272.7,1202.25Z" style="fill:#020202"/><path d="M1227.34,931.82a4.52,4.52,0,1,1,4.51-4.52A4.51,4.51,0,0,1,1227.34,931.82Z" style="fill:#020202"/><path d="M1227.34,970.6a4.51,4.51,0,1,1,4.51-4.51A4.51,4.51,0,0,1,1227.34,970.6Z" style="fill:#020202"/><path d="M1227.34,1009.39a4.52,4.52,0,1,1,4.51-4.52A4.51,4.51,0,0,1,1227.34,1009.39Z" style="fill:#020202"/><path d="M1227.34,1048.17a4.51,4.51,0,1,1,4.51-4.51A4.51,4.51,0,0,1,1227.34,1048.17Z" style="fill:#020202"/><path d="M1227.34,1085.9a4.52,4.52,0,1,1,4.51-4.51A4.51,4.51,0,0,1,1227.34,1085.9Z" style="fill:#020202"/><path d="M1227.34,1124.68a4.51,4.51,0,1,1,4.51-4.51A4.51,4.51,0,0,1,1227.34,1124.68Z" style="fill:#020202"/><path d="M1227.34,1163.47a4.52,4.52,0,1,1,4.51-4.51A4.51,4.51,0,0,1,1227.34,1163.47Z" style="fill:#020202"/><path d="M1227.34,1202.25a4.51,4.51,0,1,1,4.51-4.51A4.51,4.51,0,0,1,1227.34,1202.25Z" style="fill:#020202"/><rect x="204.28" y="659.64" width="168.94" height="168.94" style="fill:none;stroke:#020202;stroke-miterlimit:10;stroke-width:1.3px"/><polyline points="204.28 828.57 268.05 892.34 438.51 892.34 438.51 722.71 373.22 659.64" style="fill:none;stroke:#020202;stroke-miterlimit:10;stroke-width:1.3px"/><line x1="373.22" y1="828.57" x2="437.75" y2="893.11" style="fill:none;stroke:#020202;stroke-miterlimit:10;stroke-width:1.3px"/><g style="mix-blend-mode:multiply"><circle cx="866.6" cy="223.93" r="7.37" style="fill:#0095d5"/><circle cx="929.91" cy="223.93" r="7.37" style="fill:#0095d5"/><path d="M1000.59,223.93a7.37,7.37,0,1,1-7.36-7.36A7.37,7.37,0,0,1,1000.59,223.93Z" style="fill:#0095d5"/><circle cx="1056.54" cy="223.93" r="7.37" style="fill:#0095d5"/><circle cx="866.6" cy="283.98" r="7.37" style="fill:#0095d5"/><circle cx="929.91" cy="283.98" r="7.37" style="fill:#0095d5"/><path d="M1000.59,284a7.37,7.37,0,1,1-7.36-7.37A7.37,7.37,0,0,1,1000.59,284Z" style="fill:#0095d5"/><circle cx="1056.54" cy="283.98" r="7.37" style="fill:#0095d5"/></g><rect x="1099.06" y="26.38" width="151.56" height="151.56" transform="translate(2349.68 204.32) rotate(180)" style="fill:none;stroke:#020202;stroke-miterlimit:10;stroke-width:1.3px"/><polyline points="1250.62 177.94 1193.41 235.15 1040.48 235.15 1040.48 82.97 1098.06 25.38" style="fill:none;stroke:#020202;stroke-miterlimit:10;stroke-width:1.3px"/><line x1="1099.06" y1="177.94" x2="1041.16" y2="235.84" style="fill:none;stroke:#020202;stroke-miterlimit:10;stroke-width:1.3px"/><polyline points="1360.53 767.2 1382.34 779.2 1404.14 767.2 1425.95 779.2 1447.76 767.2 1469.58 779.2 1491.39 767.2 1513.2 779.2 1535.02 767.2 1556.83 779.2 1578.65 767.2" style="fill:none;stroke:#020202;stroke-miterlimit:10;stroke-width:2px"/><polyline points="1360.53 801.62 1382.34 813.62 1404.14 801.62 1425.95 813.62 1447.76 801.62 1469.58 813.62 1491.39 801.62 1513.2 813.62 1535.02 801.62 1556.83 813.62 1578.65 801.62" style="fill:none;stroke:#020202;stroke-miterlimit:10;stroke-width:2px"/><polyline points="471.49 84.61 495.57 96.61 519.65 84.61 543.73 96.61 567.8 84.61 591.89 96.61 615.97 84.61 640.05 96.61 664.13 84.61 688.22 96.61 712.31 84.61" style="fill:none;stroke:#020202;stroke-miterlimit:10;stroke-width:2px"/><polyline points="471.49 122.61 495.57 134.61 519.65 122.61 543.73 134.61 567.8 122.61 591.89 134.61 615.97 122.61 640.05 134.61 664.13 122.61 688.22 134.61 712.31 122.61" style="fill:none;stroke:#020202;stroke-miterlimit:10;stroke-width:2px"/><path d="M33.63,248.27A7.59,7.59,0,1,1,26,240.69,7.59,7.59,0,0,1,33.63,248.27Z" style="fill:#020202"/><path d="M98.83,248.27a7.59,7.59,0,1,1-7.59-7.58A7.59,7.59,0,0,1,98.83,248.27Z" style="fill:#020202"/><path d="M164,248.27a7.59,7.59,0,1,1-7.59-7.58A7.59,7.59,0,0,1,164,248.27Z" style="fill:#020202"/><path d="M229.23,248.27a7.59,7.59,0,1,1-7.59-7.58A7.59,7.59,0,0,1,229.23,248.27Z" style="fill:#020202"/><path d="M33.63,310.11A7.59,7.59,0,1,1,26,302.52,7.58,7.58,0,0,1,33.63,310.11Z" style="fill:#020202"/><path d="M98.83,310.11a7.59,7.59,0,1,1-7.59-7.59A7.58,7.58,0,0,1,98.83,310.11Z" style="fill:#020202"/><path d="M164,310.11a7.59,7.59,0,1,1-7.59-7.59A7.58,7.58,0,0,1,164,310.11Z" style="fill:#020202"/><path d="M229.23,310.11a7.59,7.59,0,1,1-7.59-7.59A7.58,7.58,0,0,1,229.23,310.11Z" style="fill:#020202"/><path d="M33.63,371.94A7.59,7.59,0,1,1,26,364.35,7.59,7.59,0,0,1,33.63,371.94Z" style="fill:#020202"/><path d="M98.83,371.94a7.59,7.59,0,1,1-7.59-7.59A7.59,7.59,0,0,1,98.83,371.94Z" style="fill:#020202"/><path d="M164,371.94a7.59,7.59,0,1,1-7.59-7.59A7.59,7.59,0,0,1,164,371.94Z" style="fill:#020202"/><path d="M229.23,371.94a7.59,7.59,0,1,1-7.59-7.59A7.59,7.59,0,0,1,229.23,371.94Z" style="fill:#020202"/><path d="M33.63,433.77A7.59,7.59,0,1,1,26,426.19,7.59,7.59,0,0,1,33.63,433.77Z" style="fill:#020202"/><path d="M98.83,433.77a7.59,7.59,0,1,1-7.59-7.58A7.59,7.59,0,0,1,98.83,433.77Z" style="fill:#020202"/><path d="M164,433.77a7.59,7.59,0,1,1-7.59-7.58A7.59,7.59,0,0,1,164,433.77Z" style="fill:#020202"/><path d="M229.23,433.77a7.59,7.59,0,1,1-7.59-7.58A7.59,7.59,0,0,1,229.23,433.77Z" style="fill:#020202"/><path d="M33.63,7.59A7.59,7.59,0,1,1,26,0,7.58,7.58,0,0,1,33.63,7.59Z" style="fill:#020202"/><path d="M98.83,7.59A7.59,7.59,0,1,1,91.24,0,7.58,7.58,0,0,1,98.83,7.59Z" style="fill:#020202"/><path d="M164,7.59A7.59,7.59,0,1,1,156.44,0,7.58,7.58,0,0,1,164,7.59Z" style="fill:#020202"/><path d="M229.23,7.59A7.59,7.59,0,1,1,221.64,0,7.58,7.58,0,0,1,229.23,7.59Z" style="fill:#020202"/><path d="M33.63,69.42A7.59,7.59,0,1,1,26,61.83,7.59,7.59,0,0,1,33.63,69.42Z" style="fill:#020202"/><path d="M98.83,69.42a7.59,7.59,0,1,1-7.59-7.59A7.59,7.59,0,0,1,98.83,69.42Z" style="fill:#020202"/><path d="M164,69.42a7.59,7.59,0,1,1-7.59-7.59A7.59,7.59,0,0,1,164,69.42Z" style="fill:#020202"/><path d="M229.23,69.42a7.59,7.59,0,1,1-7.59-7.59A7.59,7.59,0,0,1,229.23,69.42Z" style="fill:#020202"/><path d="M33.63,131.25A7.59,7.59,0,1,1,26,123.67,7.59,7.59,0,0,1,33.63,131.25Z" style="fill:#020202"/><path d="M98.83,131.25a7.59,7.59,0,1,1-7.59-7.58A7.59,7.59,0,0,1,98.83,131.25Z" style="fill:#020202"/><path d="M164,131.25a7.59,7.59,0,1,1-7.59-7.58A7.59,7.59,0,0,1,164,131.25Z" style="fill:#020202"/><path d="M229.23,131.25a7.59,7.59,0,1,1-7.59-7.58A7.59,7.59,0,0,1,229.23,131.25Z" style="fill:#020202"/><path d="M33.63,193.09A7.59,7.59,0,1,1,26,185.5,7.58,7.58,0,0,1,33.63,193.09Z" style="fill:#020202"/><path d="M98.83,193.09a7.59,7.59,0,1,1-7.59-7.59A7.58,7.58,0,0,1,98.83,193.09Z" style="fill:#020202"/><path d="M164,193.09a7.59,7.59,0,1,1-7.59-7.59A7.58,7.58,0,0,1,164,193.09Z" style="fill:#020202"/><path d="M229.23,193.09a7.59,7.59,0,1,1-7.59-7.59A7.58,7.58,0,0,1,229.23,193.09Z" style="fill:#020202"/><circle cx="251.16" cy="445.68" r="118.26" transform="translate(-241.58 308.14) rotate(-45)" style="fill:#0095d5;mix-blend-mode:multiply"/><circle cx="1728.77" cy="248.27" r="233.48" transform="translate(330.79 1295.15) rotate(-45)" style="fill:url(#_6_dpi_20_)"/><circle cx="600.89" cy="996.74" r="233.48" transform="translate(-528.8 716.83) rotate(-45)" style="fill:url(#_6_dpi_20_3)"/><path d="M1359.14,266.91a125,125,0,1,1,125,125" style="fill:none;stroke:#0095d5;stroke-miterlimit:10;stroke-width:2.5px"/><path d="M612,200.73l-15.8,15.8,16.08,16.07-15.07,15.07L581.16,231.6l-15.8,15.8L551,233.06l15.79-15.8L550.66,201.1,565.73,186l16.16,16.16,15.8-15.8Z" style="fill:#010101"/><path d="M1800.55,532.87l-15.8,15.8,16.07,16.07-15.07,15.07-16.07-16.07-15.8,15.8-14.34-14.34,15.8-15.8-16.16-16.16,15.07-15.07,16.16,16.16,15.8-15.8Z" style="fill:#010101"/><rect y="744.36" width="279.1" height="374.91" style="fill:#0095d5;mix-blend-mode:multiply"/><path d="M1036.52,970.6a69.93,69.93,0,1,1-69.92-69.92" style="fill:none;stroke:#0095d5;stroke-miterlimit:10;stroke-width:2.5px"/><line x1="770.92" y1="1010.67" x2="803.78" y2="977.81" style="fill:none;stroke:#3d3d3d;stroke-miterlimit:10;stroke-width:1.5px"/><line x1="799.56" y1="1010.67" x2="832.42" y2="977.81" style="fill:none;stroke:#3d3d3d;stroke-miterlimit:10;stroke-width:1.5px"/><line x1="828.21" y1="1010.67" x2="861.06" y2="977.81" style="fill:none;stroke:#3d3d3d;stroke-miterlimit:10;stroke-width:1.5px"/><line x1="856.85" y1="1010.67" x2="889.71" y2="977.81" style="fill:none;stroke:#3d3d3d;stroke-miterlimit:10;stroke-width:1.5px"/><line x1="885.49" y1="1010.67" x2="918.35" y2="977.81" style="fill:none;stroke:#3d3d3d;stroke-miterlimit:10;stroke-width:1.5px"/><line x1="914.14" y1="1010.67" x2="947" y2="977.81" style="fill:none;stroke:#3d3d3d;stroke-miterlimit:10;stroke-width:1.5px"/><line x1="942.78" y1="1010.67" x2="975.64" y2="977.81" style="fill:none;stroke:#3d3d3d;stroke-miterlimit:10;stroke-width:1.5px"/><circle cx="1755.75" cy="981.05" r="176.08" style="fill:none;stroke:#0095d5;stroke-miterlimit:10;stroke-width:2px"/><circle cx="1755.75" cy="981.05" r="236.94" transform="translate(-179.46 1528.84) rotate(-45)" style="fill:none;stroke:#0095d5;stroke-miterlimit:10;stroke-width:2px"/><path d="M1755.75,1187.56c-113.88,0-206.52-92.64-206.52-206.51s92.64-206.51,206.52-206.51,206.51,92.64,206.51,206.51S1869.62,1187.56,1755.75,1187.56Z" style="fill:none;stroke:#0095d5;stroke-miterlimit:10;stroke-width:2px"/><circle cx="1755.75" cy="981.05" r="176.08" style="fill:none;stroke:#0095d5;stroke-miterlimit:10;stroke-width:2px"/><circle cx="1755.75" cy="981.05" r="143.42" style="fill:none;stroke:#0095d5;stroke-miterlimit:10;stroke-width:2px"/><circle cx="1755.75" cy="981.05" r="113.51" style="fill:none;stroke:#0095d5;stroke-miterlimit:10;stroke-width:2px"/><circle cx="1547.05" cy="839.09" r="61.38" style="fill:#3d3d3d;stroke:#0095d5;stroke-miterlimit:10"/><rect x="13.15" y="602.13" width="142.25" height="20.88" style="fill:#3d3d3d"/><rect x="170.2" y="602.13" width="22.83" height="20.88" style="fill:#3d3d3d"/><g style="mix-blend-mode:multiply"><g style="mix-blend-mode:multiply"><rect x="1623.82" y="658.88" width="164.47" height="22.05" style="fill:#0095d5"/></g><g style="mix-blend-mode:multiply"><rect x="1544.51" y="658.88" width="46.37" height="22.05" style="fill:#0095d5"/></g></g><rect x="419.92" y="876.42" width="46.37" height="46.37" style="fill:#0095d5;mix-blend-mode:multiply"/><rect x="1447.12" y="39.81" width="183.29" height="101.6" style="fill:#0095d5;mix-blend-mode:multiply"/><circle cx="1046.24" cy="1039.15" r="94.9" transform="translate(-428.35 1044.16) rotate(-45)" style="fill:none;stroke:#0095d5;stroke-miterlimit:10;stroke-width:19px;mix-blend-mode:multiply"/><rect id="SVGID" x="150" y="39.81" width="1620" height="1080" style="fill:none"/></g></g></g></svg>